<svg xmlns="http://www.w3.org/2000/svg" xmlns:xlink="http://www.w3.org/1999/xlink" width="500" zoomAndPan="magnify" viewBox="0 0 375 374.999991" height="500" preserveAspectRatio="xMidYMid meet" version="1.0"><defs><g/></defs><g fill="#000000" fill-opacity="1"><g transform="translate(132.893549, 200.999987)"><g><path d="M 16.09375 0.371094 C 23.769531 0.371094 29.746094 -4.960938 29.746094 -13.769531 C 29.746094 -22.539062 23.769531 -27.871094 16.09375 -27.871094 C 8.339844 -27.871094 2.402344 -22.539062 2.402344 -13.769531 C 2.402344 -4.960938 8.339844 0.371094 16.09375 0.371094 Z M 16.09375 -2.929688 C 10.390625 -2.929688 5.878906 -6.835938 5.878906 -13.769531 C 5.878906 -20.625 10.390625 -24.53125 16.09375 -24.53125 C 21.757812 -24.53125 26.25 -20.625 26.25 -13.769531 C 26.25 -6.835938 21.757812 -2.929688 16.09375 -2.929688 Z M 16.09375 -2.929688 "/></g></g></g><g fill="#000000" fill-opacity="1"><g transform="translate(165.038845, 200.999987)"><g><path d="M 12.832031 0.371094 C 18.203125 0.371094 22.539062 -2.167969 22.539062 -7.441406 C 22.539062 -13.027344 17.519531 -14.316406 13.085938 -15.488281 C 9.511719 -16.40625 6.386719 -17.265625 6.386719 -20.332031 C 6.386719 -23.574219 9.277344 -24.84375 12.128906 -24.84375 C 15.3125 -24.84375 18.007812 -23.4375 18.847656 -20.351562 L 22.109375 -21.191406 C 21.074219 -25.800781 16.835938 -27.871094 11.992188 -27.871094 C 7.109375 -27.871094 2.871094 -25.351562 2.871094 -20.273438 C 2.871094 -15.195312 7.128906 -13.886719 11.425781 -12.734375 C 15.253906 -11.699219 18.90625 -10.800781 18.964844 -7.34375 C 19.023438 -3.886719 15.996094 -2.636719 12.890625 -2.636719 C 9.160156 -2.636719 6.328125 -4.472656 5.488281 -7.734375 L 2.050781 -6.914062 C 2.988281 -2.363281 7.109375 0.371094 12.832031 0.371094 Z M 12.832031 0.371094 "/></g></g></g><g fill="#000000" fill-opacity="1"><g transform="translate(189.860644, 200.999987)"><g><path d="M 21.972656 0 L 25.625 0 L 15.488281 -27.5 L 11.308594 -27.5 L 1.171875 0 L 4.824219 0 L 7.167969 -6.582031 L 19.609375 -6.582031 Z M 8.28125 -9.667969 L 13.398438 -23.984375 L 18.515625 -9.667969 Z M 8.28125 -9.667969 "/></g></g></g><g fill="#000000" fill-opacity="1"><g transform="translate(216.6549, 200.999987)"><g><path d="M 23.28125 0 L 16.425781 -11.054688 C 17.832031 -11.386719 18.964844 -11.953125 19.882812 -12.734375 C 21.757812 -14.179688 22.675781 -16.542969 22.675781 -19.511719 C 22.675781 -22.480469 21.699219 -24.589844 19.726562 -25.859375 C 18.125 -26.972656 15.859375 -27.5 12.773438 -27.5 L 4.316406 -27.5 L 4.316406 0 L 7.8125 0 L 7.8125 -10.683594 L 13.007812 -10.683594 L 19.199219 0 Z M 7.8125 -24.472656 L 12.324219 -24.472656 C 14.726562 -24.472656 16.464844 -24.21875 17.636719 -23.261719 C 18.554688 -22.5 19.101562 -21.25 19.101562 -19.375 C 19.101562 -17.421875 18.59375 -16.113281 17.695312 -15.234375 C 16.582031 -14.101562 14.785156 -13.730469 12.324219 -13.730469 L 7.8125 -13.730469 Z M 7.8125 -24.472656 "/></g></g></g></svg>